<?xml version="1.0" encoding="utf-8"?>
<svg version="1.1" id="Layer_1" xmlns="http://www.w3.org/2000/svg" xmlns:xlink="http://www.w3.org/1999/xlink" x="0px" y="0px"
	 viewBox="0 0 216 121.7" style="enable-background:new 0 0 216 121.7;" xml:space="preserve">
<style type="text/css">
	.st0{fill:#22998E;}
	.st1{fill:#016B63;}
	.st2{fill:#0C5159;}
	.st3{clip-path:url(#SVGID_00000044857491817434319780000010541804309345038211_);}
	.st4{fill:#FFFFFF;}
</style>
<symbol  id="New_Symbol" viewBox="-108 -108 216 216">
	<rect x="-108" y="-108" class="st0" width="216" height="216"/>
	<path class="st1" d="M108,108h-216V86.4c21-3.2,77.1-14.8,127.4-62.1C73.7-26.8,87.2-87.6,90.9-108H108V108z"/>
	<path class="st2" d="M108,108h-216V96.8c49.7-4.9,97.6-21,140.3-46.9C60.6,32.6,86.1,11.2,108-13.7V108z"/>
</symbol>
<g id="Layer_2_00000168115810817492458650000011676009725879652530_">
	<g id="Layer_1-2">
		<g>
			<defs>
				<rect id="SVGID_1_" width="216" height="121.7"/>
			</defs>
			<clipPath id="SVGID_00000047738203344819973710000009489199774867296175_">
				<use xlink:href="#SVGID_1_"  style="overflow:visible;"/>
			</clipPath>
			<g style="clip-path:url(#SVGID_00000047738203344819973710000009489199774867296175_);">
				
					<use xlink:href="#New_Symbol"  width="216" height="216" x="-108" y="-108" transform="matrix(1 0 0 1 108 13.71)" style="overflow:visible;"/>
			</g>
		</g>
		<path class="st4" d="M38.7,92.8c-1.1,4-3.4,5.3-6.4,5.3c-4.6,0-6.7-3.4-6.7-9s2.6-8.8,6.8-8.8c3.2,0,5.1,1.5,6,5.1l-2.1,0.4
			c-0.7-2.5-2-3.6-3.9-3.6c-2.8,0-4.5,2.5-4.5,6.8c0,4.6,1.4,7,4.4,7c2.1,0,3.5-1.1,4.2-3.7L38.7,92.8z"/>
		<path class="st4" d="M54,97.8l-1.5-5.1h-6.2l-1.5,5.1h-2.3l5.4-17.2h3.2l5.4,17.2H54z M46.9,90.6h5l-2.4-8.2h0L46.9,90.6z"/>
		<path class="st4" d="M61.6,97.8V80.5h2.3v15.2h7.5v2L61.6,97.8z"/>
		<path class="st4" d="M88.4,92.8c-1,4-3.4,5.3-6.4,5.3c-4.6,0-6.7-3.4-6.7-9s2.6-8.8,6.8-8.8c3.2,0,5.1,1.5,6,5.1L86,85.8
			c-0.7-2.5-2-3.6-3.9-3.6c-2.8,0-4.5,2.5-4.5,6.8c0,4.6,1.4,7,4.4,7c2.1,0,3.5-1.1,4.2-3.7L88.4,92.8z"/>
		<path class="st4" d="M104.3,80.5h2.3V91c0,4.4-1.9,7-6.6,7s-6.3-2.6-6.3-7V80.5H96v10.9c0,3.1,1.2,4.6,4,4.6s4.3-1.4,4.3-4.6
			L104.3,80.5z"/>
		<path class="st4" d="M113.3,97.8V80.5h2.3v15.2h7.5v2L113.3,97.8z"/>
		<path class="st4" d="M138,97.8l-1.5-5.1h-6.2l-1.5,5.1h-2.3l5.4-17.2h3.2l5.4,17.2H138z M130.9,90.6h5l-2.4-8.2l0,0L130.9,90.6z"
			/>
		<path class="st4" d="M147.5,97.8V82.6h-4.9v-2h12.1v2h-4.9v15.2H147.5z"/>
		<path class="st4" d="M158.1,89.2c0-5.1,2.4-8.9,7.1-8.9s7,3.8,7,8.9c0,5.5-2.6,8.9-7,8.9S158.1,94.7,158.1,89.2z M169.9,89.2
			c0-4.4-1.8-7-4.8-7s-4.8,2.6-4.8,7s1.8,6.9,4.8,6.9S169.9,93.5,169.9,89.2z"/>
		<path class="st4" d="M187.9,97.8l-3.6-7.4h-4v7.4h-2.3V80.5h5.3c4.5,0,6.4,1.7,6.4,4.8c0.1,2.1-1.3,3.9-3.3,4.4l4.1,8L187.9,97.8z
			 M183.3,88.4c1.5,0,4-0.2,4-2.9s-2.1-2.9-3.9-2.9h-3.2v5.8H183.3z"/>
		<path class="st4" d="M59.5,46.1H31.3c0.2,2.6,1.5,5.1,3.5,6.8c2.1,1.6,4.6,2.4,7.2,2.4c1.9,0,3.7-0.4,5.4-1.3
			c1.5-0.7,2.7-2,3.4-3.5H59c-0.6,2.1-1.7,4-3.3,5.5c-1.6,1.7-3.6,3-5.8,3.8c-2.5,1-5.1,1.4-7.8,1.4c-3.4,0-6.7-0.7-9.8-2.2
			c-2.7-1.3-4.9-3.4-6.4-6c-1.5-2.8-2.3-5.9-2.2-9.1c-0.1-3.1,0.7-6.2,2.2-8.9c1.4-2.6,3.6-4.6,6.2-6c2.9-1.5,6.1-2.2,9.4-2.2
			c5.7,0,10.1,1.6,13.3,4.9C57.9,35,59.5,39.8,59.5,46.1z M41.4,32.8c-2.3-0.1-4.6,0.6-6.5,1.9c-1.8,1.4-2.9,3.4-3.4,5.6h20.1
			c-0.4-2.2-1.6-4.2-3.3-5.6C46.3,33.3,43.9,32.7,41.4,32.8z"/>
		<path class="st4" d="M100.3,34.4l-6.2,3.4c-1.1-1.7-2.7-3-4.6-3.9c-1.9-0.8-3.9-1.2-5.9-1.1c-1.8-0.1-3.7,0.3-5.3,1.1
			c-1.1,0.5-1.9,1.6-1.9,2.8c0,0.9,0.5,1.8,1.4,2.2c1.6,0.6,3.2,1,4.9,1.2c3.4,0.4,6.8,1,10.1,1.8c2.2,0.5,4.2,1.5,5.9,3
			c1.5,1.5,2.3,3.7,2.2,5.8c0.1,3.2-1.4,6.2-4.1,7.9c-2.7,1.8-6.7,2.7-11.8,2.7c-3.4,0.1-6.8-0.5-10-1.7c-3-1.4-5.6-3.5-7.5-6.2
			l6.3-3.7c2.2,3.7,6.2,5.5,11.8,5.5c1.9,0.1,3.8-0.3,5.5-1c1.2-0.5,2-1.6,2.1-2.9c0.1-1-0.5-1.9-1.5-2.2c-1.2-0.5-2.4-0.8-3.6-0.9
			c-1.4-0.2-2.7-0.4-3.8-0.5c-2.7-0.3-5.4-0.9-8.1-1.6c-2-0.6-3.8-1.6-5.3-3.1c-1.5-1.6-2.2-3.6-2.1-5.8c0-1.8,0.6-3.5,1.6-4.9
			c1.3-1.7,3-3.1,5-3.9c2.7-1.1,5.6-1.6,8.5-1.5c3.3,0,6.5,0.6,9.5,2C96.1,29.9,98.6,31.9,100.3,34.4z"/>
		<path class="st4" d="M144.8,44c0.1,3.2-0.7,6.5-2.2,9.3c-1.5,2.6-3.7,4.6-6.3,5.9c-6,2.7-13,2.7-19,0c-2.7-1.3-4.9-3.3-6.3-5.9
			c-1.6-2.8-2.3-6.1-2.2-9.3c-0.1-3.1,0.7-6.2,2.1-8.9c1.4-2.6,3.6-4.7,6.3-6.1c6.1-2.9,13.2-2.9,19.4,0c2.6,1.3,4.8,3.4,6.2,6
			C144.1,37.8,144.8,40.9,144.8,44z M126.7,54.8c2.9,0.2,5.7-0.9,7.7-2.9c1.9-2.2,2.9-5.1,2.8-8c0-3.4-1-6-2.9-7.9
			c-2.1-1.9-4.8-2.9-7.7-2.8c-2.8-0.2-5.6,0.8-7.6,2.7c-1.9,1.8-2.8,4.5-2.8,7.9c-0.2,2.9,0.8,5.8,2.8,8
			C121,53.9,123.8,55,126.7,54.8z"/>
		<path class="st4" d="M192.3,43.8c0,3.1-0.7,6.2-2.2,9c-1.4,2.6-3.5,4.7-6.1,6.2c-2.6,1.5-5.6,2.2-8.7,2.2
			c-2.2,0.1-4.3-0.2-6.4-0.8c-2.2-0.9-4.4-2.1-6.3-3.6v14.4h-7.4V27.9h7.3V32c1.6-1.7,3.6-3.1,5.8-4c2.1-0.8,4.4-1.2,6.7-1.2
			c3.2-0.1,6.3,0.7,9.1,2.2c2.6,1.4,4.7,3.5,6.1,6.1C191.6,37.7,192.3,40.8,192.3,43.8z M173.6,54.8c2,0,3.9-0.4,5.7-1.3
			c1.7-0.9,3.1-2.2,4-3.8c1-1.7,1.4-3.7,1.4-5.6c0-2-0.5-4-1.5-5.7c-1-1.6-2.4-3-4.1-3.8c-1.8-0.9-3.8-1.4-5.8-1.3
			c-1.9,0-3.7,0.3-5.4,1c-1.9,0.8-3.7,2-5.2,3.4v12.6c1.7,1.5,3.6,2.7,5.6,3.7C169.9,54.5,171.8,54.9,173.6,54.8L173.6,54.8z"/>
	</g>
</g>
</svg>
